# xmcd CD database file
#
# Track frame offsets:
#	150
#	26742
#	45209
#	63602
#	79775
#	101220
#	128389
#	142563
#	156048
#	171805
#	189633
#	204163
#
# Disc length: 2932 seconds
#
# Revision: 0
# Processed by: cddbd v1.4PL0 Copyright (c) Steve Scherf et al.
# Submitted via: CDex 1.50Beta7
#
DISCID=900b720c
DTITLE=Various Artist - NAV November 2000 Sampler
DYEAR=2000
DGENRE=New Age
TTITLE0=Danny Paradise - Now That the Shamans Have Planes
TTITLE1=Campanile - Au Jardin du Roi des Lapins
TTITLE2=Naoyuki Onda - Temple in the Twilight
TTITLE3=d'goya - Fallen
TTITLE4=Colette and Phil - Fountains of Light
TTITLE5=M Path - Om Mani
TTITLE6=Libana - Dark of the Moon
TTITLE7=Lara and Reyes - Feliz Navidad
TTITLE8=David Such - Juggler
TTITLE9=Rene - Love for All Seasons
TTITLE10=Janet Dunbar - Life on Earth, Part I
TTITLE11=Ruben Romero and Robert Notkoff - Silent Night
EXTD=YEAR: 2000
EXTT0=
EXTT1=
EXTT2=
EXTT3=
EXTT4=
EXTT5=
EXTT6=
EXTT7=
EXTT8=
EXTT9=
EXTT10=
EXTT11=
PLAYORDER=
